<?xml version="1.0" encoding="UTF-8"?>
<svg width="400" height="400" version="1.1" xmlns="http://www.w3.org/2000/svg">
  <path d="m200.12-0.0035841c98.148 27.393 143.92 61.458 196.44 142.72 4.2581 101.77-13.91 155.84-75.013 230.86-95.522 35.555-152.58 34.916-242.78 0-63.303-79.838-80.335-134.27-75.013-230.86 56.348-84.877 102.9-117.95 196.37-142.72z" fill="#297bbf" stroke-width=".070967"/>
  <path d="m63.209 162.23-4.329 6.3162-8.5871 12.916-5.6774 16.536-3.0516 7.0258 0.56774 11.639 4.7549 7.9484 1.7032 9.2968 2.271 6.5291 5.1807 9.5097-0.42581 4.8968 1.1355 5.1807 4.0452 7.2387 3.7613 4.7549 1.1355 5.6774" fill="none" stroke="#000" stroke-width=".16018"/>
  <path d="m200.12 353.63c5.9613-0.42581 10.645-2.4129 16.181-4.471 8.3741-3.1935 15.471-6.6 30.374-2.8387 4.0451 0.99354 8.8709 2.8387 13.484 4.8258 9.6516 4.1161 20.794 8.0193 33.213 6.9548l1.0645-4.4c-5.3225-4.1871-7.3096-10.148-8.9419-17.6-0.4258-1.9871-0.8516-3.9032-1.3484-5.9613l-0.4258-1.5613-1.5612-0.14194c-9.1549-0.70967-15.684-2.9806-23.845-5.8903-3.4774-1.2774-7.2388-2.6258-11.639-3.9742-11.994-3.6903-22.922-0.92258-33.071 1.6322-5.3935 1.3484-8.3031 2.6258-13.058 2.8387h-0.6387c-4.8258-0.14193-7.7355-1.4194-13.058-2.8387-10.148-2.5548-21.148-5.3226-33.071-1.6322-4.4 1.3484-8.1612 2.6968-11.639 3.9742-8.1613 2.9097-14.69 5.1806-23.845 5.8903l-1.5613 0.14194-0.4258 1.5613c-0.5678 2.0581-0.9226 3.9742-1.4194 5.9613-1.6322 7.4516-3.3354 13.839-8.658 18.026l0.8516 3.3355c12.419 1.0645 22.922-2.3419 32.574-6.529 4.6129-1.9871 9.1548-3.8322 13.271-4.8258 14.903-3.7613 22.71-0.071 31.155 3.1226 5.5354 2.0581 10.29 4.0452 16.252 4.471zm0-33.213c-8.1613-2.2-16.394-6.1032-23.632-11.426-1.4903-1.1355-2.9806-2.271-4.4-3.5484-0.5677-0.49677-1.0645-0.99355-1.6322-1.4903-9.3677 3.8322-22.922 8.1613-36.761 10.645-11.568 2.058-23.348 2.7677-33.284 0.70967-10.29-2.058-18.522-7.0968-22.355-16.606-0.6387-1.6323-1.2064-3.4064-1.5612-5.2516-7.9484-5.2516-11.852-11.639-13.129-16.748-0.28387-1.0645-0.42581-2.129-0.49677-3.0516-0.071-0.56774-0.071-1.0645 0-1.6322-5.4645-5.3935-8.729-11-9.2258-16.252-0.071-1.1355-0.071-2.2 0.14193-3.3355 0.14194-0.63871 0.2129-1.2774 0.42581-1.8452h0.071c-2.7677-3.2645-4.8967-6.529-6.3871-10.361-1.5613-3.9742-2.271-8.4451-2.058-13.91-9.7226-8.9419-8.5161-22.922-2.5548-34.703 6.9548-13.839 16.252-26.968 20.297-38.606 2.271-6.458 4.0451-2.4129 4.0451-0.42581 0 9.6516-1.5613 20.013-3.5484 29.31-0.2129 0.99355-0.4258 1.9871-1.0645 5.1806-0.99354 4.7548-0.99354 9.2258 0.35484 12.49 0.56774 1.3484 1.3484 2.4129 2.3419 3.3355 0.99354 0.85161 2.3419 1.4903 3.9742 1.8452 3.7613 0.78064 9.0838-0.071 16.252-3.0516 17.529-7.3806 34.49-13.839 46.555-14.69 13.484-0.92258 21.361 4.471 18.735 21.645-0.3549 2.3419-0.7807 4.7548-1.1355 6.9548-0.9935 5.7484-1.4903 9.0129-1.1355 12.064 0.2839 2.3419 0.9226 4.9677 2.5548 7.6645 1.3484 2.271 3.4774 4.5419 6.742 6.8129 0.1419-0.42581 0.3548-0.92258 0.4968-1.3484-0.9226-9.7935 0-19.516 4.1161-28.671 0.7806-1.6323 1.5613-3.2645 2.5548-4.8258l-18.877-91.903c-1.2774-6.3161-2.7677-10.29-5.2516-12.135-3.3354-2.4839-8.7999-1.7742-12.632-1.1355-3.2645 0.56774-3.2645-1.3484-0.9226-2.6968 3.5484-1.9871 7.8065-4.8258 11.639-7.3806 6.9548-4.6129 13.91-8.729 21.645-2.8387 0.9936-6.6 6.1742-10.077 11.142-13.484 1.4193-1.0645 4.9677-3.0516 6.8129-5.8193 1.7742-2.5548 3.8323-3.4774 4.1871-0.49677 0.071 0.78064 0.3548 2.4129 0.6387 4.1161 3.5484-3.8322 8.8709-6.0322 12.348-9.7226 1.9871-2.129 2.0581-4.1161 3.9032-4.1871 1.8452 0.071 1.9161 2.0581 3.9032 4.1871 3.4775 3.6903 8.8 5.8903 12.348 9.7226 0.2839-1.7032 0.5677-3.3355 0.6387-4.1161 0.3548-2.9806 2.4129-2.129 4.1871 0.49677 1.9161 2.6968 5.3935 4.7548 6.8128 5.8193 4.8968 3.4064 10.078 6.8838 11.071 13.484 7.7354-5.8903 14.761-1.7742 21.645 2.8387 3.8322 2.5548 8.1612 5.3935 11.639 7.3806 2.271 1.2774 2.271 3.1935-0.9935 2.6968-3.7613-0.63871-9.2967-1.3484-12.632 1.1355-2.4839 1.9161-3.9742 5.8193-5.2516 12.135l-18.877 91.903c0.9225 1.5613 1.7741 3.1935 2.4838 4.8258 4.1161 9.1548 5.1097 18.948 4.1161 28.671 0.2129 0.42581 0.3549 0.92258 0.4968 1.3484 3.2645-2.271 5.3935-4.5419 6.7419-6.8129 1.6322-2.6968 2.2709-5.3226 2.5548-7.6645 0.3548-3.1226-0.1419-6.3161-1.1355-12.064-0.3548-2.129-0.7806-4.6129-1.1354-6.9548-2.6258-17.103 5.2515-22.568 18.735-21.645 12.136 0.78064 29.026 7.3096 46.626 14.69 7.1677 3.0516 12.49 3.8322 16.252 3.0516 1.6323-0.35484 2.9097-0.92258 3.9742-1.8452 1.0645-0.85161 1.8451-1.9871 2.3419-3.3355 1.3484-3.2645 1.3484-7.7355 0.4258-12.49-0.6387-3.1935-0.8516-4.1871-1.0645-5.1806-1.9161-9.2967-3.4774-19.658-3.4774-29.31 0-1.9871 1.7742-6.0322 4.0451 0.42581 4.0452 11.639 13.342 24.768 20.297 38.606 5.9612 11.852 7.1677 25.832-2.5549 34.703 0.2129 5.4645-0.4967 9.9355-2.058 13.91-1.4194 3.8322-3.6194 7.0968-6.3162 10.361 0.2129 0.56774 0.3549 1.2064 0.4258 1.8452 0.2129 1.1355 0.2129 2.271 0.142 3.3355-0.4258 5.2516-3.7613 10.787-9.2258 16.252v1.6322c-0.071 0.92258-0.2129 1.9871-0.4968 3.0516-1.2774 5.1097-5.1806 11.497-13.129 16.748-0.3548 1.8452-0.9225 3.6193-1.5612 5.2516-3.8323 9.5096-12.064 14.477-22.355 16.606-9.9354 2.0581-21.716 1.2774-33.284-0.70967-13.839-2.4129-27.322-6.8129-36.761-10.645-0.5678 0.49677-1.0646 0.99355-1.6323 1.4903-1.4903 1.2774-2.9097 2.4129-4.4 3.5484-7.2386 5.3226-15.542 9.2258-23.632 11.426z" stroke-width=".070967"/>
  <g fill="#fff">
    <g stroke-width=".070967">
      <path d="m195.12 174.58c1.7742 2.271 3.6193 4.6129 5.0387 7.4516 1.3483-2.8387 3.1935-5.1806 4.9677-7.4516 2.7677-3.5484 5.4645-6.8838 5.6064-11.994 0.142-5.2516-2.9806-9.5096-6.0322-13.839-1.6323-2.3419-3.2645-4.6129-4.5419-7.0968-1.2775 2.4839-2.9097 4.8258-4.542 7.0968-3.0516 4.329-6.1741 8.5871-6.0322 13.839 0.071 5.1097 2.7677 8.4451 5.6064 11.994z"/>
      <path d="m78.725 289.83c4.3291 1.8452 8.3033 2.8387 12.278 3.2645 3.6193 0.4258 7.3096 0.35483 11.284 0.2129 2.7677-0.14194 3.0516 4.329-0.071 4.471-4.0451 0.2129-7.8064 0.2129-11.71-0.2129-2.9096-0.28387-5.8193-0.85161-8.871-1.8452 0.142 0.56774 0.3549 1.0645 0.5678 1.5613 3.1936 7.8774 10.29 12.135 19.161 13.91 9.2968 1.9161 20.51 1.2064 31.652-0.78064 11.568-2.0581 22.922-5.4645 31.722-8.729-13.129-2.4129-23.277-6.8838-30.303-13.768-7.9484-7.7355-11.71-18.31-10.929-32.219 0.4968-9.0838 3.2645-18.381 5.8193-27.039 1.7742-6.0322 3.4775-11.781 4.1871-16.748 1.3484-9.2258-0.9935-16.11-13.484-17.955-9.5806 2.6258-20.722 7.0258-32.219 11.852-8.0904 3.4064-14.265 4.258-18.877 3.3355-2.4129-0.49677-4.329-1.4194-5.9613-2.7677-1.5613-1.3484-2.7677-3.0516-3.6193-4.9677-1.7033-4.1161-1.7742-9.5096-0.63871-15.116 0.071-0.35483 0.56774-2.7677 1.0645-5.1806 1.0645-5.2516 2.129-10.077 2.9097-15.258-2.058 4.0452-4.4 8.0903-6.742 12.135-7.2387 12.703-14.548 25.406-12.064 36.122 3.1226 13.484 18.948 16.535 30.516 18.239 4.9677 0.70968 4.4 5.1806-1.0645 4.2581-6.3871-0.99355-13.768-2.6258-19.587-5.1806-1.2064-0.56775-2.3419-1.1355-3.4774-1.7742 0.14194 3.4064 0.78065 6.3161 1.7742 8.9419 4.9677 12.845 14.69 14.335 27.039 15.542 5.7484 0.56774 5.5355 4.9677-0.2839 4.471-6.2451-0.56774-13.058-1.7032-18.239-3.8322-0.8516-0.35483-1.7032-0.78064-2.4839-1.2064-1.2064 6.8838 4.2581 13.342 10.787 16.535 6.7419 3.2645 14.69 3.1935 19.942 2.7677 3.9742-0.28387 3.9742 4.471 0.071 4.471-4.1871 0-8.8001-0.071-13.2-0.63871-2.9806-0.4258-5.8193-1.0645-8.3742-2.0581 0.071 0.35484 0.14194 0.63871 0.2129 0.99355 1.0645 4.1871 4.329 9.4387 11 13.981z"/>
      <path d="m186.52 192.18c-9.7226 6.458-15.826 13.839-19.374 21.716-2.6967 6.0322-3.9032 12.419-4.0451 18.948 2.4838-3.7613 5.4645-7.1677 8.5161-10.574 6.6709-7.5935 13.484-15.329 14.69-27.252 0.071-0.92258 0.1419-1.8452 0.2129-2.8387z"/>
      <path d="m116.12 327.37"/>
      <path d="m197.52 337.8v-13.2c-4.542-0.42581-7.0258-1.6323-11.923-2.8387-9.5806-2.4129-19.871-5.0387-30.658-1.7032-4.329 1.3484-8.0902 2.6258-11.497 3.9032-8.0193 2.8387-14.548 5.1806-23.348 6.0322-0.2838 1.3484-0.6387 2.7677-0.9226 4.1871-0.7096 3.0516-1.3483 6.2451-2.3419 9.2258 7.3097-0.14193 13.981-3.2645 20.51-6.2451 4.1871-1.9161 8.3032-3.8322 12.49-4.9677 16.819-4.471 28.174-0.70968 38.748 2.7677 3.8322 1.2774 5.3935 2.0581 9.0128 2.8387z"/>
      <path d="m321.62 289.83c-4.329 1.8452-8.3031 2.8387-12.277 3.2645-3.6193 0.4258-7.3097 0.35483-11.284 0.2129-2.7677-0.14194-3.0516 4.329 0.071 4.471 4.0451 0.2129 7.8065 0.2129 11.71-0.2129 2.9096-0.28387 5.8193-0.85161 8.8709-1.8452-0.1419 0.56774-0.3548 1.0645-0.5678 1.5613-3.1935 7.8774-10.29 12.135-19.161 13.91-9.2967 1.9161-20.51 1.2064-31.58-0.78064-11.568-2.0581-22.922-5.4645-31.722-8.729 13.129-2.4129 23.277-6.8838 30.303-13.768 7.9484-7.7355 11.71-18.31 10.929-32.219-0.4968-9.0838-3.2645-18.381-5.8193-27.039-1.7742-6.0322-3.4774-11.781-4.1871-16.748-1.2774-9.2258 0.9936-16.11 13.484-17.955 9.5806 2.6258 20.722 7.0258 32.219 11.852 8.0903 3.4064 14.264 4.258 18.877 3.3355 2.4129-0.49677 4.329-1.4194 5.9612-2.7677 1.5613-1.3484 2.7677-3.0516 3.6194-4.9677 1.7032-4.1161 1.7741-9.5096 0.6387-15.116-0.071-0.35483-0.5678-2.7677-1.0645-5.1806-1.1355-5.2516-2.1291-10.077-2.9097-15.258 2.058 4.0452 4.4 8.0903 6.6709 12.135 7.3097 12.703 14.548 25.406 12.064 36.122-3.1225 13.484-18.948 16.535-30.516 18.239-4.9678 0.70968-4.4 5.1806 1.0645 4.2581 6.3871-0.99355 13.768-2.6258 19.587-5.1806 1.2065-0.56775 2.3419-1.1355 3.4064-1.7742-0.1419 3.4064-0.7806 6.3161-1.7741 8.9419-4.9678 12.845-14.69 14.335-27.11 15.542-5.7484 0.56774-5.4645 4.9677 0.2838 4.471 6.1743-0.56774 13.058-1.7032 18.239-3.8322 0.8516-0.35483 1.7032-0.78064 2.4839-1.2064 1.2064 6.8838-4.2581 13.342-10.858 16.535-6.742 3.2645-14.69 3.1935-19.942 2.7677-3.9032-0.28387-3.9742 4.471-0.071 4.471 4.2581 0 8.8709-0.071 13.2-0.63871 2.9807-0.4258 5.8194-1.0645 8.3742-2.0581-0.071 0.35484-0.1419 0.63871-0.2129 0.99355-1.0645 4.1871-4.329 9.4387-11 13.981z"/>
      <path d="m213.82 192.18c9.7226 6.458 15.826 13.839 19.374 21.716 2.7677 6.0322 3.9741 12.419 4.0451 18.948-2.4838-3.7613-5.4645-7.1677-8.5161-10.574-6.671-7.5935-13.484-15.329-14.69-27.252-0.071-0.92258-0.1419-1.8452-0.2129-2.8387z"/>
      <path d="m284.12 327.37c-0.071-0.14193 0 0 0 0z"/>
      <path d="m202.62 337.8v-13.2c4.6129-0.42581 7.0258-1.6323 11.923-2.8387 9.5806-2.4129 19.942-5.0387 30.658-1.7032 4.329 1.3484 8.0193 2.6258 11.497 3.9032 8.0193 2.8387 14.548 5.1806 23.348 6.0322 0.2839 1.3484 0.6387 2.7677 0.9226 4.1871 0.6387 3.0516 1.3484 6.2451 2.2709 9.2258-7.3097-0.14193-13.981-3.2645-20.439-6.2451-4.1871-1.9161-8.3032-3.8322-12.561-4.9677-16.819-4.471-28.174-0.70968-38.748 2.7677-3.8323 1.2774-5.3935 2.0581-9.0129 2.8387z"/>
      <path d="m200.12 342.77c4.6838-0.35484 7.6645-1.7742 12.916-3.5484 10.006-3.2645 20.722-6.8129 36.264-2.6968 3.8322 0.99354 7.7355 2.8387 11.781 4.6838 2.4839 1.1355 5.1096 2.3419 7.7354 3.4064 5.0387 1.9871 10.361 3.4774 16.252 3.2645 0.7097 1.6322 1.5613 3.1226 2.6258 4.5419-9.3677-0.42581-17.884-4.0452-25.69-7.4516-4.7548-2.0581-9.2968-3.9742-13.768-5.1097-16.252-4.0452-24.413-0.99355-33.497 2.4129-5.8903 2.2-9.4386 3.5484-14.619 4.0452-5.1806-0.42581-8.8-1.8452-14.619-4.0452-9.0839-3.4064-17.245-6.458-33.497-2.4129-4.4709 1.1355-8.9419 3.0516-13.697 5.1097-7.8064 3.3355-16.322 7.0258-25.69 7.4516 0.9935-1.4194 1.8451-2.9097 2.6258-4.5419 5.8903 0.2129 11.213-1.2064 16.322-3.2645 2.6258-1.0645 5.1806-2.2 7.6645-3.4064 3.9742-1.8452 7.9483-3.6903 11.781-4.6838 15.542-4.1161 26.258-0.56774 36.193 2.6968 5.3226 1.7742 8.3032 3.1935 12.987 3.5484z"/>
    </g>
    <path d="m200.12 350.86c5.9613-0.4258 10.645-2.4129 16.181-4.471 8.3741-3.1935 15.968-5.9613 30.871-2.271 4.1161 1.0645 8.4452 2.9097 13.058 4.8968 9.6515 4.1161 20.297 8.729 32.716 7.7355l1.2064-3.9742c-5.3225-4.1871-7.0257-12.064-8.658-19.516-0.4258-1.9871-0.8516-3.9032-1.3484-5.8903l-0.4258-1.5613-1.5612-0.14193c-9.1549-0.70967-15.4-3.4774-23.49-6.3161-3.4774-1.2064-6.2452-2.9806-10.645-4.329-11.993-3.7613-24.271-0.14194-34.419 2.4129-5.3935 1.3484-9.7935 4.9677-14.548 5.1097h-0.6387c-4.7548-0.14193-6.1742-3.6903-11.497-5.1097-10.148-2.5548-21.148-5.3226-33.071-1.6322-4.4 1.3484-9.2258 4.258-12.703 5.4645-8.0903 2.9097-14.477 4.7548-22.781 4.4l-1.5612 0.14193-0.4258 1.5613c-0.5678 2.0581-0.9226 3.9742-1.4194 5.8903-1.6322 7.4516-3.4064 15.329-8.6581 19.516l1.2065 3.9742c12.419 1.0645 23.135-3.5484 32.716-7.7355 4.6129-1.9871 9.0129-3.8322 13.058-4.8968 14.903-3.7613 22.426-0.92258 30.871 2.271 5.5355 2.0581 10.29 4.0452 16.252 4.471z" stroke="#000" stroke-width="4.4495"/>
    <g stroke-width=".070967">
      <path d="m200.12 283.09c-1.1355 0-1.3484 1.8452-1.9161 3.5484-0.4968 1.5613-1.1355 2.9097-1.9871 4.329-0.4258 0.78064-0.8516 1.4903-1.2065 2.271-3.4064 7.5935 0.2839 12.703 5.0387 17.6 4.9677-5.1806 8.4452-10.077 5.0387-17.6-0.3548-0.78064-0.7806-1.4903-1.1355-2.271-0.7806-1.4194-1.4193-2.8387-1.9871-4.329-0.5677-1.7032-0.7806-3.5484-1.9161-3.5484z"/>
      <path d="m209.12 178.34c-0.1419 0.14194-0.2839 0.35484-0.4258 0.56774-2.4129 3.0516-4.8968 6.2452-5.9613 10.716-1.1355 4.9677-3.9742 5.3935-5.0387 0.21291-0.8516-4.0452-2.9806-7.0258-5.1097-9.8645v0.14193c-0.4258-0.56774-0.8516-1.1355-1.2774-1.7032 0 5.4645-0.071 12.348-0.4967 17.103-1.4194 13.271-8.6581 21.645-15.826 29.735-5.6064 6.3871-11.071 12.632-12.987 20.935l-0.7097 2.9806-2.6258-1.5613c-5.3936-3.1226-8.729-6.529-10.716-9.8645-2.0581-3.4064-2.8387-6.6-3.1936-9.4387-0.4258-3.6903 0.142-7.0968 1.1355-13.342 0.2839-1.7742 0.6387-3.8322 1.0645-6.8838 1.9871-13.058-3.9032-17.174-14.052-16.535-1.2065 0.071-2.4129 0.2129-3.7613 0.4258 8.4451 3.9032 10.006 11.284 8.658 20.581-0.7096 5.3226-2.4838 11.213-4.329 17.458-2.4839 8.3742-5.1097 17.387-5.6064 25.974-0.7097 12.561 2.6258 22 9.5806 28.813 7.0967 6.9548 18.026 11.213 32.432 13.271l1.2775 0.63871c1.2064 1.2774 2.4838 2.4839 3.7612 3.6193 1.3484 1.1355 2.6968 2.271 4.1161 3.3355 4.7549 3.5484 14.619 10.858 20.368 10.716 6.0323-0.071 21.645-10.716 21.645-10.716s2.8387-2.129 4.1161-3.3355c1.3484-1.1355 2.6258-2.3419 3.8322-3.6193l1.2775-0.63871c14.406-2.0581 25.335-6.3161 32.432-13.271 6.9548-6.8129 10.29-16.252 9.5806-28.813-0.4967-8.658-3.1225-17.6-5.6064-25.974-1.8451-6.2452-3.5484-12.135-4.329-17.458-1.3484-9.2967 0.2129-16.677 8.658-20.581-1.2774-0.2129-2.5548-0.35483-3.7612-0.4258-10.148-0.70968-16.039 3.4774-14.052 16.535 0.4967 2.9806 0.7806 5.0387 1.1355 6.8838 1.0645 6.1742 1.6322 9.6516 1.1355 13.342-0.3549 2.8387-1.1355 6.0322-3.1936 9.4387-2.0581 3.3355-5.3226 6.7419-10.716 9.8645l-2.6258 1.5613-0.7096-2.9806c-1.9162-8.3032-7.3806-14.548-12.987-20.935-7.0968-8.0903-14.406-16.464-15.826-29.735-0.4968-4.7548-0.5678-11.71-0.4968-17.174z"/>
      <path d="m186.72 172.02c-0.9226-2.129-1.5613-4.471-1.6323-7.3096-0.1419-6.7419 3.3355-11.639 6.8838-16.535 3.1936-4.4 5.7484-7.2387 6.7419-13.626 0.4968-3.1935 2.271-2.6968 2.6968 0.071 1.0645 5.9613 3.6903 9.0129 6.9549 13.555 3.4773 4.8968 7.0257 9.7935 6.8838 16.535-0.071 2.8387-0.7097 5.2516-1.6323 7.3096 0 4.6839-0.071 10.787 0 15.258 7.5935 4.6129 13.342 9.7935 17.671 15.329l0.071-0.4258 17.955-87.219c1.5612-7.4516 3.3354-12.135 6.9548-14.832 1.4194-1.0645 2.9806-1.7032 4.8968-2.0581-0.4968-0.35484-1.0645-0.70968-1.5613-1.0645-5.6775-3.8322-11.355-7.5935-17.387-3.8322-2.2 1.4194-3.2645 2.4839-3.6903 4.9677l-8.7999 48.755c-0.7807 3.6903-5.2517 2.9806-4.3291-1.2064l8.5161-47.193c0.5678-2.9806 1.4194-6.2451 0.5678-9.1548-1.2774-4.329-5.3936-7.1677-9.1549-9.7935-1.7032-1.2064-3.3354-2.3419-4.6838-3.5484-0.1419 1.1355-0.3548 2.2-0.4968 3.1226l-5.5354 56.135c-0.4258 3.4774-4.8258 3.0516-4.4-0.99354l4.6838-47.761c0.4968-4.8258 0.7097-7.0968-2.9096-10.574-1.4903-1.4194-3.3355-2.8387-5.0387-4.1871-1.7742-1.3484-3.5484-2.4839-4.9678-3.9032-0.7096-0.70968-1.3483-1.4903-1.8451-2.271-0.4968 0.78064-1.1355 1.5613-1.9161 2.271-1.4194 1.3484-3.1936 2.5548-4.9677 3.9032-1.7033 1.3484-3.4774 2.6968-5.0387 4.1871-3.6194 3.4064-3.3355 5.7484-2.9097 10.574l4.6839 47.761c0.4258 4.0452-3.9742 4.4-4.4 0.99354l-5.5355-56.135c-0.142-0.92257-0.2839-1.9871-0.4968-3.1226-1.4193 1.2065-3.0516 2.3419-4.7548 3.5484-3.6903 2.5548-7.8064 5.3935-9.0838 9.7935-0.8516 2.9806 0 6.2451 0.4967 9.1548l8.5161 47.193c0.9226 4.1871-3.4774 4.8968-4.329 1.2064l-8.7999-48.755c-0.4258-2.4839-1.4904-3.5484-3.6903-4.9677-5.9614-3.8322-11.639 0-17.316 3.8322-0.4968 0.35483-1.0645 0.70967-1.5613 1.0645 1.8451 0.35483 3.4774 1.0645 4.8967 2.0581 3.5484 2.6258 5.3936 7.3806 6.9548 14.832l17.884 87.219 0.071 0.4258c4.2581-5.5355 10.006-10.716 17.6-15.329 0.071-4.471 0-10.574 0.071-15.258z"/>
    </g>
  </g>
  <g>
    <path d="m198.32 344.76m90.484 0.4258c0.2839 0.78064 0.6387 1.4903 1.0645 2.271-9.0129 2.0581-19.161-1.8452-28.387-6.0322-6.9548-3.1226-13.91-6.2452-20.51-6.529-7.5226-0.35484-14.548 0.35483-21.432 1.9871-6.8838 1.6322-13.555 4.258-20.51 7.7354-0.071 0.071-0.071 0.071-0.142 0.071h-0.3549s-0.071 0-0.071-0.071c0 0-0.071 0-0.071-0.071-6.8839-3.4774-13.626-6.1032-20.51-7.7355-6.8838-1.6323-13.91-2.3419-21.432-1.9871-6.671 0.28387-12.987 3.4774-19.161 6.529-8.1613 4.0452-17.032 7.5935-26.045 5.5355l1.0645-2.271c8.0903 1.8452 16.11-1.6322 23.916-5.5355 6.458-3.1935 13.058-6.458 20.155-6.8129 7.7355-0.35484 14.974 0.35483 22.142 2.0581 6.8838 1.6322 13.626 4.258 20.58 7.6645 6.8839-3.4774 13.697-6.0322 20.581-7.6645 7.0968-1.7032 14.336-2.4129 22.142-2.0581 7.0258 0.35483 14.194 3.5484 21.361 6.8129 8.8709 3.9742 18.097 7.8774 26.329 6.0322z" stroke-width=".070967"/>
    <path d="m198.32 324.39m85.161 0.6387c0.2839 0.78064 0.6387 1.4903 1.0645 2.271-9.0129 1.4903-13.768-2.3419-23.064-6.2451-6.9548-3.1226-13.91-6.2451-20.51-6.529-7.5226-0.35484-14.548 0.35484-21.432 1.9871s-13.555 4.258-20.51 7.7355c-0.071 0.071-0.071 0.071-0.142 0.071l-0.1419 0.14193h-0.284s-0.071 0-0.071-0.071c0 0-0.071 0-0.071-0.071-6.8838-3.4774-13.626-6.1032-20.51-7.7355-25.619-6.1742-43.432 14.903-61.245 10.858l1.0645-2.271c16.464 3.7613 35.413-17.103 60.748-11 6.8839 1.6323 13.626 4.258 20.581 7.6645 6.8839-3.4064 13.697-6.0322 20.581-7.6645 7.0967-1.7032 14.335-2.4129 22.142-2.058 7.0257 0.35484 14.194 3.5484 21.361 6.8129 8.8709 3.6903 12.774 7.1677 20.935 6.2452z" stroke-width=".070967"/>
    <path d="m196.98 323.12h2.4839v19.232h-2.4839z" stroke-width=".070968"/>
    <g stroke-width=".070967">
      <path d="m68.675 135.97c-7.8774-3.7613-11.781-5.6064-19.658-9.3677-1.4903 3.1226-2.2 4.7548-3.5484 8.0193-1.6322-0.70967-2.4839-0.99354-4.1161-1.7032 3.6903-8.9419 5.8193-13.2 10.432-21.219 1.5613 0.92258 2.271 1.3484 3.8322 2.2-1.7032 2.9097-2.4838 4.4-4.0451 7.4516 7.7355 3.9742 11.568 6.0322 19.303 10.006-0.92258 1.7742-1.3484 2.6968-2.271 4.6129z"/>
      <path d="m53.705 108.51c1.2064-1.9871 1.8452-2.9806 3.0516-4.8968 4.7549 3.1226 7.0968 4.6839 11.852 7.8064 1.8452 1.2774 3.1226 1.9871 3.7613 2.271 0.99354 0.42581 1.9871 0.42581 2.9806 0.14194 0.99354-0.28388 1.8452-1.0645 2.6967-2.2 0.7807-1.1355 1.2065-2.2 1.1355-3.1226s-0.4258-1.7742-1.0645-2.4129-1.7742-1.6322-3.4064-2.8387c-4.6129-3.4774-6.9548-5.2516-11.568-8.729 1.3484-1.8452 2.058-2.6968 3.4064-4.471 4.258 3.4774 6.458 5.1806 10.716 8.658 2.4129 1.9871 4.1161 3.4774 4.9678 4.5419 0.8516 0.99354 1.4194 2.129 1.7032 3.1935 0.2839 1.1355 0.2839 2.271 0 3.5484-0.2838 1.2774-0.9935 2.6258-2.0581 4.1871-1.3484 1.8452-2.4839 3.1935-3.6194 3.9032-1.1354 0.70968-2.2709 1.1355-3.4064 1.2064-1.1355 0.14194-2.2 0-3.1935-0.35483-1.4194-0.49678-3.4064-1.4903-5.8903-3.0516-4.7548-2.9097-7.1677-4.4-11.923-7.3096z"/>
      <path d="m93.625 98.566c-6.387-5.9613-9.5805-8.9419-15.968-14.832-2.129 2.3419-3.1935 3.5484-5.2516 5.9613-1.3484-1.1355-2.058-1.7032-3.4064-2.8387 5.6774-6.7419 8.658-9.9354 14.974-15.755 1.2064 1.2774 1.7742 1.9871 2.9806 3.2645-2.2709 2.129-3.4064 3.1935-5.6065 5.4645 6.1743 6.1742 9.2968 9.2258 15.471 15.329-1.2774 1.3484-1.9871 1.9871-3.1936 3.4064z"/>
      <path d="m113.32 80.826c-8.0194-7.0968-12.136-10.574-20.723-17.103 1.7033-1.4194 2.5549-2.0581 4.329-3.4064 5.6065 4.8258 8.3742 7.2387 13.768 12.277-2.7678-6.8838-4.1162-10.361-6.5291-17.387 2.129-1.4193 3.1936-2.129 5.3226-3.4064 5.4645 5.2516 8.0903 7.9484 13.271 13.413-2.4838-7.0258-3.6193-10.574-5.8193-17.813 1.8451-1.0645 2.8387-1.5613 4.6838-2.4839 2.6258 10.503 4.0452 15.613 7.3806 25.832-1.6322 0.92258-2.4838 1.4194-4.1161 2.4129-5.6064-5.7484-8.516-8.5871-14.477-14.052 2.6258 7.6645 3.9742 11.426 7.0258 18.948-1.6323 1.1355-2.4129 1.7032-3.9742 2.9097z"/>
      <path d="m123.92 43.636c1.9161-0.92258 2.8387-1.3484 4.7548-2.271 2.4129 5.1806 3.6194 7.7355 5.9613 12.916 0.9226 2.0581 1.6322 3.3355 1.9871 3.9032 0.6387 0.92258 1.4193 1.4903 2.3419 1.7742s1.9871 0.2129 3.1935-0.28387c1.2065-0.49677 1.9871-1.1355 2.3419-1.9871 0.3549-0.78064 0.4968-1.6322 0.2839-2.5548-0.2129-0.85161-0.7097-2.271-1.4193-4.258-2.1291-5.3935-3.1936-8.0903-5.3226-13.484 1.9871-0.78064 2.9097-1.1355 4.8968-1.8452 1.8451 5.1806 2.7677 7.8064 4.6838 12.987 1.0645 2.9806 1.7032 5.1097 1.9161 6.3871s0.142 2.4839-0.1419 3.5484-0.8516 2.0581-1.7032 2.9097-2.0581 1.6322-3.6194 2.3419c-1.9161 0.78064-3.5483 1.2064-4.7548 1.1355-1.2064-0.071-2.3419-0.35484-3.3354-0.92258-0.9936-0.56774-1.7742-1.2064-2.4129-2.0581-0.9226-1.2064-2.0581-3.1226-3.4065-5.7484-2.4839-5.0387-3.7613-7.5226-6.2451-12.49z"/>
      <path d="m156.42 58.826c-3.2645-10.006-4.8258-14.974-8.0903-24.91 4.1871-1.3484 6.3161-1.9161 10.574-2.9806 2.6968-0.63871 4.6838-0.85161 6.0322-0.63871s2.4839 0.85162 3.4065 1.8452c0.9935 1.0645 1.5612 2.3419 1.9161 3.8322 0.3548 1.9161 0.1419 3.6193-0.6387 5.1097-0.7807 1.4903-4.1161 3.3355-4.1161 3.3355 0 0.071 2.129 0.99354 2.9806 1.6322s1.9871 1.8452 3.4774 3.6193 2.2 2.6968 3.6193 4.5419c-2.058 0.35484-3.1225 0.56774-5.1806 0.99354-1.7742-1.9871-2.6258-2.9097-4.4709-4.8258-1.6323-1.7032-2.7678-2.7677-3.3355-3.1226-0.5677-0.4258-1.1355-0.6387-1.6322-0.70967-0.5678-0.071-1.3484 0.071-2.4129 0.35484-0.3549 0.071-0.5678 0.14193-0.9226 0.28387 1.2064 4.1871 1.8451 6.3161 3.0516 10.503-1.7032 0.49677-2.5548 0.70968-4.2581 1.2774zm0.071-15.826c1.4194-0.4258 2.0581-0.56774 3.4774-0.92257 2.271-0.56774 3.6903-0.99354 4.1871-1.3484 0.4968-0.35483 0.8516-0.78064 1.0645-1.4193 0.2129-0.56774 0.2129-1.2774 0.071-2.0581-0.2129-0.85161-0.5678-1.4903-1.1355-1.9161-0.5678-0.4258-1.2774-0.6387-2.129-0.56773-0.4258 0-1.6323 0.28386-3.6194 0.78064-1.5613 0.42581-2.271 0.56774-3.8323 1.0645 0.7807 2.5548 1.1355 3.8322 1.8452 6.3871z"/>
      <path d="m177.82 53.786c-1.7032-10.361-2.5548-15.471-4.2581-25.832 2.0581-0.35483 3.1226-0.49677 5.1807-0.78064 1.4193 10.361 2.129 15.542 3.4774 25.974-1.7742 0.2129-2.6258 0.35484-4.4 0.63871z"/>
      <path d="m194.82 52.016c-0.4968-10.432-0.7097-15.684-1.2774-26.116 2.058-0.071 3.1226-0.14194 5.1806-0.14194 0.071 4.1161 0.1419 6.1742 0.2129 10.29 3.8322-0.071 5.7484-0.071 9.5807 0.14194 0.1419-4.1161 0.2838-6.1742 0.4258-10.29 2.058 0.071 3.1225 0.14193 5.1806 0.28387-0.7097 10.432-1.1355 15.684-1.8452 26.116-1.7742-0.14194-2.6258-0.14194-4.4-0.2129 0.2129-4.5419 0.2839-6.8838 0.4968-11.426-3.7613-0.14194-5.6065-0.14194-9.3677-0.14194 0.071 4.6129 0.1419 6.8838 0.2129 11.426-1.7742 0-2.6258 0.071-4.4 0.14194z"/>
      <path d="m236.42 55.846c-1.8452-0.42581-2.8387-0.63872-4.7548-0.99355-0.2839-2.4839-0.4258-3.6903-0.7807-6.1742-3.6194-0.63871-5.3936-0.92258-9.0129-1.4194-1.0645 2.271-1.5613 3.4064-2.5548 5.6774-1.8452-0.2129-2.7677-0.28387-4.6839-0.49677 4.3291-10.148 6.8129-15.187 12.277-24.981 2.2 0.28387 3.2645 0.49677 5.4645 0.85161 2.271 11 3.0516 16.535 4.0452 27.535zm-6.1032-11.852c-0.5678-4.0452-0.9226-6.1032-1.6323-10.148-1.9161 3.6193-2.9097 5.4645-4.6839 9.1548 2.5549 0.35485 3.8323 0.56775 6.3162 0.99355z"/>
      <path d="m238.82 56.416c2.6258-10.148 3.9742-15.258 6.529-25.406 1.9871 0.49677 2.9806 0.78064 4.8967 1.2774 2.1291 7.8774 2.9807 11.852 4.2581 19.658 2.342-6.6 3.5484-9.9354 5.8903-16.464 1.8452 0.63871 2.7677 0.99355 4.5419 1.6322-3.7612 9.7935-5.6774 14.69-9.5096 24.413-1.6323-0.6387-2.4839-0.92257-4.1871-1.4903-1.0645-7.5935-1.8452-11.426-3.7613-19.09-1.8451 6.6-2.8387 9.8645-4.7548 16.393-1.5613-0.4258-2.4129-0.63871-3.9742-1.0645z"/>
      <path d="m270.02 39.166c3.5483 1.4903 5.3225 2.271 8.8 3.9742 1.9161 0.92258 3.3355 1.8452 4.1871 2.6968 1.1354 1.1355 1.9161 2.4129 2.2709 3.9742 0.3549 1.5613 0.4258 3.1936 0.071 4.8968-0.3549 1.7032-1.1355 3.6194-2.4129 5.7484-1.0645 1.8452-2.271 3.3355-3.4064 4.471-1.4904 1.3484-2.9807 2.3419-4.471 2.8387-1.1355 0.4258-2.4129 0.49677-3.8323 0.35483-1.0645-0.14193-2.3419-0.56774-3.8322-1.2774-3.0516-1.4903-4.5419-2.2-7.6645-3.4774l10.29-24.129zm2.9806 6.1032c-2.9097 6.3161-4.329 9.4387-7.3096 15.755 1.2774 0.56774 1.8451 0.85161 3.1225 1.4194 1.1355 0.56774 2.0581 0.92258 2.6258 0.99355 0.7807 0.14193 1.4903 0.14193 2.2-0.14194 0.7097-0.2129 1.4194-0.78064 2.271-1.6322s1.7742-2.2 2.6967-3.9742c0.9936-1.7742 1.5614-3.2645 1.7743-4.329 0.2129-1.1355 0.2129-2.0581-0.071-2.9097s-0.7806-1.5613-1.5613-2.2c-0.5678-0.49677-1.7742-1.2064-3.6903-2.0581-0.8516-0.4258-1.2774-0.56774-2.0581-0.99354z"/>
      <path d="m296.22 85.366c-1.5613-1.2774-2.342-1.9161-3.9033-3.1226 0.8517-2.3419 1.2065-3.5484 1.9871-5.9613-2.9806-2.271-4.5419-3.3355-7.6644-5.3935-1.9162 1.5613-2.9097 2.3419-4.8258 3.9742-1.6323-1.0645-2.4129-1.5613-4.0452-2.4839 8.3742-7.2387 12.845-10.645 22.142-17.032 1.8451 1.2774 2.7677 1.9161 4.6129 3.2645-2.7678 11-4.4 16.393-8.3032 26.755zm-0.4968-13.555c1.2064-3.9032 1.8451-5.8903 2.9096-9.9354-3.3354 2.4129-5.0386 3.6194-8.3031 6.1742 2.2 1.4903 3.2645 2.2 5.3935 3.7613z"/>
      <path d="m300.42 88.916c2.9806-3.2645 4.4-4.9677 7.3806-8.2322 1.3484-6.9548 1.9161-10.503 2.6258-17.671 1.9871 1.5613 2.9806 2.4129 4.8968 4.0452-0.7807 4.8258-1.2775 7.1677-2.271 11.852 4.5419-1.4903 6.8129-2.129 11.568-3.3355 1.7742 1.7742 2.6967 2.6968 4.4 4.5419-7.1677 1.2064-10.645 1.9871-17.529 3.9032-3.0516 3.1935-4.5419 4.8258-7.5935 8.0193-1.3484-1.2774-1.9871-1.9161-3.4065-3.1226z"/>
      <path d="m322.62 114.26c-1.2065-1.7742-1.8452-2.6258-3.0516-4.258 1.4193-2.129 2.058-3.1935 3.4774-5.3226-2.4129-3.1226-3.6194-4.6839-6.2452-7.5935-2.3419 0.99354-3.4774 1.4903-5.7483 2.5548-1.3484-1.4903-1.9871-2.2-3.4064-3.6194 10.006-4.7548 15.258-6.8838 25.903-10.432 1.5613 1.7742 2.2709 2.6968 3.7613 4.6129-5.3936 10.077-8.3742 14.974-14.761 24.129zm2.8387-13.626c2.2-3.5484 3.2645-5.3226 5.2516-8.9419-3.9033 1.3484-5.8194 2.129-9.6516 3.6194 1.7742 2.058 2.6258 3.1226 4.329 5.3226z"/>
      <path d="m324.12 116.46c8.658-5.8903 13.058-8.8 21.645-14.69 1.2774 1.8452 1.8451 2.8387 3.0516 4.7548-3.4065 7.7355-5.3226 11.497-9.4387 18.664 6.1742-3.3355 9.2258-4.9677 15.4-8.3032 1.0645 1.9161 1.5613 2.9097 2.5548 4.9677l-23.419 11.71c-0.9226-1.8452-1.3484-2.7677-2.3419-4.5419 4.1161-6.8129 6.0322-10.361 9.4387-17.742-5.7484 3.6903-8.6581 5.4645-14.406 9.1548-0.9935-1.5613-1.4193-2.3419-2.4838-3.8322z"/>
      <path d="m336.22 138.17c9.5096-4.329 14.335-6.529 23.845-10.858 0.9935 2.2 1.4903 3.3355 2.4128 5.6064-9.6515 3.9742-14.477 6.0322-24.2 10.006-0.7806-1.9161-1.2064-2.9097-2.058-4.7548z"/>
      <path d="m194.32 280.75c2.0581-1.9871 9.4387-1.8452 11.639 0 2.4129 1.9871 1.8452 12.206 1.8452 12.206s4.258 5.4645 4.1161 7.5935c-0.2129 4.0452-7.8774 11.355-12.136 11.355-4.258 0-11.922-7.5226-12.135-11.639-0.1419-2.2 4.258-7.8774 4.258-7.8774s0.2129-9.5096 2.342-11.639zm0.142 12.206s-3.0516 4.6839-2.9097 6.529c0.1419 3.4064 5.3935 9.5806 8.3032 9.5806 2.9096 0 8.1613-5.9613 8.3032-9.3677 0.071-1.7742-2.8387-6.2451-2.8387-6.2451s0.4258-8.3742-1.2774-10.006c-1.4904-1.5613-6.6-1.6323-7.9484 0-1.4903 1.7032-1.6322 9.5806-1.6322 9.5806z"/>
    </g>
  </g>
  <g fill="#fff" stroke-width=".070967">
    <path d="m216.02 242.21"/>
    <path d="m216.02 242.21"/>
    <path d="m209.72 231.07c-3.6193-5.7484-7.1677-12.419-9.6516-20.297-3.0516 8.0903-1.2774 16.039 0.2129 22.852 1.7032 7.7355 3.5484 15.613-0.4968 27.748-1.4903 4.471-5.3225 1.4194-4.187-1.2064 6.8128-15.897-1.3484-30.871-3.4065-35.271-1.5612 5.6064-6.0322 11.923-8.4451 17.316-3.3355 7.4516-4.6129 17.032 0.071 23.987 0.8516 1.3484 1.9871 2.5548 3.3355 3.6903 1.0645 0.85161 2.2709 1.6322 3.6193 2.4129 0.7806-0.56774 1.7032-0.99355 2.6258-1.4194 0.2839-0.14194 0.5677-0.28387 0.8516-0.35484 1.7742-0.63871 3.6903-0.99355 5.6774-0.99355 2.8387 0 5.5355 0.70968 7.8774 1.9871 0.4258 0.21291 0.8516 0.49678 1.2774 0.78065 8.5871-4.5419 10.716-12.703 9.7225-20.51-0.2129-1.6322-0.5677-3.3355-0.9935-4.8968-0.4968-1.6322-1.0645-3.1935-1.7032-4.6129-1.7032-3.8322-3.9742-7.4516-6.3161-11.142z"/>
  </g>
  <path d="m202.12 200.41c2.058 14.974 7.0258 20.652 11.639 28.529 2.4129 3.8322 4.6838 7.5226 6.529 11.639v0.071c0.7096 1.6322 1.3483 3.4064 1.8451 5.1806s0.9226 3.6193 1.1355 5.4645c1.2774 9.8645-1.7032 20.155-13.555 25.548l-1.4193 0.6387-1.1355-0.92257c-0.2839-0.28387-0.5677-0.42581-0.8516-0.63871s-0.5677-0.35484-0.9226-0.56774c-1.6323-0.85161-3.5484-1.4194-5.6065-1.4194-1.4193 0-2.7677 0.28387-3.9741 0.70967-0.2129 0.071-0.4258 0.14194-0.5678 0.21291-0.9935 0.4258-1.9161 0.99354-2.7677 1.7032l-1.1355 0.92257-1.4193-0.6387h-0.071c-2.2709-1.0645-4.1871-2.271-5.8903-3.6193-1.7032-1.3484-3.0516-2.9097-4.1161-4.6129-5.5355-8.3742-4.1871-19.445-0.4258-27.89 3.1226-7.0258 8.658-12.774 10.148-21.574 0.4968-3.1226 1.0646-6.3871 3.8323-1.0645 0.4258 0.78065 0.9226 1.7742 1.3484 3.3355-1.4194-5.5355 2.8387-17.387 4.329-21.361 1.3484-3.4774 2.6258-4.5419 2.9806 0.42581z" fill="#fbd206" stroke-width=".070967"/>
  <g fill="none" stroke="#000" stroke-width="5.191">
    <path d="m202.12 200.41c2.058 14.974 7.0258 20.652 11.639 28.529 2.4129 3.8322 4.6838 7.5226 6.529 11.639v0.071"/>
    <path d="m220.22 240.58"/>
    <path d="m220.22 240.58c0.7096 1.6323 1.3483 3.4064 1.8451 5.1806s0.9226 3.6193 1.1355 5.4645c1.2774 9.8645-1.7032 20.155-13.555 25.548"/>
    <path d="m209.68 276.78-1.4194 0.63871-1.1355-0.92258"/>
    <path d="m207.12 276.49c-0.2839-0.28387-0.5677-0.4258-0.8516-0.63871-0.2839-0.2129-0.5677-0.35483-0.9226-0.56774-1.6323-0.85161-3.5484-1.4194-5.6065-1.4194-1.4193 0-2.7677 0.28387-3.9741 0.70968-0.2129 0.071-0.4258 0.14193-0.5678 0.2129-0.9935 0.4258-1.9161 0.99355-2.7677 1.7032"/>
    <path d="m192.44 276.49-1.1355 0.92258-1.4194-0.63871h-0.071"/>
    <path d="m189.82 276.77c-2.2709-1.0645-4.1871-2.271-5.8903-3.6193-1.7032-1.3484-3.0516-2.9097-4.1871-4.6129-5.5355-8.3742-4.1871-19.445-0.4258-27.89 3.1226-7.0258 8.6581-12.774 10.148-21.574 0.4968-3.1226 1.0645-6.3871 3.8322-1.0645 0.4258 0.78064 0.9226 1.7742 1.4194 3.3355-1.4194-5.5355 2.8387-17.387 4.329-21.361 1.3484-3.4774 2.6258-4.5419 2.9806 0.42581"/>
  </g>
  <path d="m195.02 217.23s6.8838 14.194 7.7354 21.858c0.7807 7.0968-6.9548 21.858-6.9548 21.858s3.7613-13.768 3.2645-21.077c-0.4258-6.458-6.458-19.445-6.458-19.445l2.4129-3.2645z" stroke-width=".070967"/>
  <g fill="none" stroke="#000" stroke-width=".74162">
    <path d="m200.12 350.86c5.9613-0.4258 10.645-2.4129 16.181-4.471 8.3741-3.1935 15.968-5.9613 30.871-2.271 4.1161 1.0645 8.4452 2.9097 13.058 4.8968 9.6515 4.1161 20.297 8.729 32.716 7.7355"/>
    <path d="m293.02 356.75 1.1-3.97"/>
    <path d="m294.12 352.78c-5.3225-4.1871-7.0257-12.064-8.658-19.516-0.4258-1.9871-0.8516-3.9032-1.3484-5.8903"/>
    <path d="m284.13 327.38-0.42581-1.5613-1.6323-0.14194"/>
    <path d="m282.12 325.67c-9.1549-0.70967-15.4-3.4774-23.49-6.3161-3.4774-1.2064-6.2451-2.9806-10.645-4.329-11.994-3.7613-24.271-0.14194-34.419 2.4129-5.3936 1.3484-9.7936 4.9677-14.548 5.1097"/>
    <path d="m198.97 322.48h-0.70968"/>
    <path d="m198.22 322.48c-4.7548-0.14193-6.1741-3.6903-11.497-5.1097-10.148-2.5548-21.148-5.3226-33.071-1.6322-4.3999 1.3484-9.2257 4.258-12.703 5.4645-8.0903 2.9097-14.477 4.7548-22.781 4.4"/>
    <path d="m118.13 325.67-1.5613 0.14194-0.4258 1.5613"/>
    <path d="m116.12 327.37c-0.5678 2.0581-0.9226 3.9742-1.4194 5.8903-1.6322 7.4516-3.4064 15.329-8.6581 19.516"/>
    <path d="m106.12 352.78 1.2 3.97"/>
    <path d="m107.32 356.75c12.419 1.0645 23.135-3.5484 32.716-7.7355 4.6129-1.9871 9.0129-3.8322 13.058-4.8968 14.903-3.7613 22.426-0.92258 30.871 2.271 5.5355 2.0581 10.29 4.0452 16.252 4.471"/>
  </g>
</svg>
